<?xml version="1.0" standalone="no"?>
<!DOCTYPE svg PUBLIC "-//W3C//DTD SVG 20010904//EN"
 "http://www.w3.org/TR/2001/REC-SVG-20010904/DTD/svg10.dtd">
<svg version="1.0" xmlns="http://www.w3.org/2000/svg"
 width="200.000000pt" height="200.000000pt" viewBox="0 0 200.000000 200.000000"
 preserveAspectRatio="xMidYMid meet">

<g transform="translate(0.000000,200.000000) scale(0.100000,-0.100000)"
fill="#000000" stroke="none">
<path d="M1452 1510 c-9 -15 -19 -19 -32 -15 -22 7 -26 -5 -8 -23 10 -10 10
-17 0 -32 -13 -21 -6 -25 18 -10 10 6 20 4 32 -7 17 -15 18 -15 18 6 0 12 7
24 15 27 21 8 19 21 -4 27 -11 2 -21 14 -23 26 l-3 22 -13 -21z"/>
<path d="M562 1390 c-102 -101 -119 -192 -48 -257 55 -51 127 -67 270 -60 219
9 433 94 569 226 76 73 74 85 -5 26 -129 -97 -298 -164 -465 -185 -294 -37
-433 97 -278 269 57 63 26 49 -43 -19z"/>
<path d="M440 490 c0 -5 13 -7 30 -3 23 4 30 2 30 -10 0 -9 -13 -25 -30 -37
-41 -29 -38 -40 13 -38 40 1 40 1 7 5 l-35 5 34 27 c43 35 37 61 -14 61 -19 0
-35 -4 -35 -10z"/>
<path d="M560 450 l0 -50 35 0 35 0 0 50 0 50 -35 0 -35 0 0 -50z m60 0 c0
-36 -2 -40 -25 -40 -22 0 -25 4 -25 40 0 36 3 40 25 40 23 0 25 -4 25 -40z"/>
<path d="M670 480 c0 -16 7 -20 30 -20 25 0 30 -4 30 -25 0 -27 -26 -35 -48
-13 -9 9 -12 8 -12 -6 0 -14 7 -17 38 -14 34 3 37 6 37 33 0 25 -4 30 -27 33
-38 5 -35 20 5 25 28 3 26 4 -10 5 -37 2 -43 -1 -43 -18z"/>
<path d="M807 482 c-24 -26 -21 -39 3 -17 20 18 20 17 20 -18 0 -29 -4 -36
-22 -40 -16 -3 -11 -5 12 -6 l35 -1 -3 50 c-4 54 -17 63 -45 32z"/>
<path d="M915 480 c-22 -24 -9 -27 17 -3 17 15 18 14 18 -25 0 -37 -3 -41 -27
-45 -17 -2 -11 -4 17 -5 25 0 39 2 33 5 -8 3 -13 23 -13 49 0 49 -15 57 -45
24z"/>
<path d="M1020 490 c0 -5 13 -7 30 -3 23 4 30 2 30 -10 0 -9 -13 -25 -30 -37
-41 -29 -38 -40 13 -38 40 1 40 1 7 5 l-35 5 34 27 c43 35 37 61 -14 61 -19 0
-35 -4 -35 -10z"/>
<path d="M1140 450 l0 -50 35 0 35 0 0 50 0 50 -35 0 -35 0 0 -50z m60 0 c0
-36 -2 -40 -25 -40 -22 0 -25 4 -25 40 0 36 3 40 25 40 23 0 25 -4 25 -40z"/>
<path d="M1255 490 c-4 -6 6 -7 25 -4 41 9 41 -17 0 -48 -41 -30 -38 -38 13
-37 41 2 41 2 9 8 l-34 6 31 23 c17 12 31 31 31 42 0 16 -7 20 -34 20 -19 0
-38 -4 -41 -10z"/>
<path d="M1387 482 c-24 -26 -21 -39 3 -17 20 18 20 17 20 -18 0 -29 -4 -36
-22 -40 -16 -3 -11 -5 12 -6 l35 -1 -3 50 c-4 54 -17 63 -45 32z"/>
<path d="M1480 490 c0 -5 13 -7 30 -3 27 5 30 3 30 -19 0 -14 -9 -33 -20 -43
-11 -10 -18 -21 -15 -23 12 -12 55 43 55 70 0 26 -3 28 -40 28 -22 0 -40 -4
-40 -10z"/>
</g>
</svg>
